<?xml version="1.0" encoding="utf-8"?>
<!-- Generator: Adobe Illustrator 25.1.0, SVG Export Plug-In . SVG Version: 6.00 Build 0)  -->
<svg version="1.1" id="Layer_1" xmlns="http://www.w3.org/2000/svg" xmlns:xlink="http://www.w3.org/1999/xlink" x="0px" y="0px"
	 viewBox="0 0 4357.8 529.2" style="enable-background:new 0 0 4357.8 529.2;" xml:space="preserve">
<style type="text/css">
	.st0{fill:#E67225;}
	.st1{fill:#F7AB1B;}
	.st2{fill:#3E61AD;}
	.st3{fill:url(#SVGID_1_);}
	.st4{fill:#3E62AE;}
	.st5{fill:url(#SVGID_2_);}
	.st6{fill:url(#SVGID_3_);}
	.st7{fill:url(#SVGID_4_);}
	.st8{fill:#366CB5;}
</style>
<g>
	<path class="st0" d="M3677.1,178.5l-79.7-80c-91.5,91.7-91.5,240.3,0,332l80-80C3630,303,3629.8,226.1,3677.1,178.5z"/>
	<path class="st1" d="M3597.4,98.5l79.7,80c47.5-47.6,124.6-47.6,172.2-0.1c0,0,0.1,0.1,0.1,0.1l58-99.4l0,0l-3.4-2.7l0,0
		C3810.5,6.7,3680,16.1,3597.4,98.5z"/>
	<path class="st1" d="M3907.8,449.8L3907.8,449.8l-58.3-99c-47.5,47.6-124.6,47.6-172.2,0.1c0,0-0.1-0.1-0.1-0.1l-79.7,80
		c82.4,81.7,212,91,305.2,22l3.7-3.1"/>
	<path class="st1" d="M3930.1,98.5c-91.5,91.7-91.5,240.3,0,332l80-80c-47.6-47.6-47.6-124.7,0-172.3c47.6-47.6,124.7-47.6,172.3,0
		l80.4-79.7c-91.7-91.9-240.5-92-332.4-0.3C3930.3,98.3,3930.2,98.4,3930.1,98.5z"/>
	<path class="st0" d="M4262.8,98.5l-79.7,80c47.6,47.6,47.6,124.7,0,172.3c-47.6,47.6-124.7,47.6-172.3,0l0,0l-80.7,80
		c91.8,91.9,240.7,91.9,332.5,0.2S4354.6,190.4,4262.8,98.5L4262.8,98.5z"/>
</g>
<path class="st2" d="M2283.2,450.7c49.9-35.7,85.6-91,94.8-156.4c1.1-7.8,1.8-15.5,2.1-23.2c-14.7-19.1-30-37.2-46.2-54.3
	C2331.9,306.3,2312.5,382.4,2283.2,450.7z"/>
<path class="st2" d="M2203.3,158.2c0-8.7-7-15.7-15.7-15.7s-15.7,7-15.7,15.7s7,15.7,15.7,15.7S2203.3,166.9,2203.3,158.2z
	 M2178.1,158.2c0-5.2,4.2-9.5,9.5-9.5s9.5,4.2,9.5,9.5c0,5.2-4.2,9.5-9.5,9.5S2178.1,163.4,2178.1,158.2z"/>
<path class="st2" d="M2045.6,470.6c21.4,10.5,44.9,17.8,69.8,21.4c51.6,7.3,101.7-3,144.2-26.4c9.9-23,18.6-47,25.7-72.2
	C2198.8,442.3,2120.3,463.2,2045.6,470.6z"/>
<path class="st2" d="M2262,311.1c0-15.6-12.7-28.3-28.3-28.3s-28.3,12.7-28.3,28.3c0,15.6,12.7,28.3,28.3,28.3
	C2249.3,339.5,2262,326.7,2262,311.1z M2215.7,311.1c0-9.9,8-17.9,17.9-17.9s17.9,8,17.9,17.9s-8,17.9-17.9,17.9
	C2223.8,329.1,2215.7,321,2215.7,311.1z"/>
<path class="st2" d="M2379.5,242.6c-5.7-68.6-41.8-130.5-96.3-169.6c-28.2,2.9-55.9,7.5-83.2,13.8
	C2279.8,135.8,2336.3,188.3,2379.5,242.6z"/>
<path class="st2" d="M2233.7,378.1l53-30.5l10.7,6.2c1.2-4.3,1.9-7.5,2.8-11.2l0.1-0.5l-8.6-5v-59.5l-58-33.5l-52.6,30.3l-43.3-26.2
	V196l12.8-8l37,21.3l44.5-25.7V139l8.7-5c-3.4-2.8-6.4-5.2-9.7-7.7l-4.6,2.6l-38.8-22.4l-44.5,25.7v45.6l-11.3,7.1l-52-30
	l-51.5,29.8l-14.7-8.5c-0.7,2.9-1.3,5.8-1.9,8.8c-0.2,1-0.4,2-0.6,3l10.9,6.2v61.1l51.7,29.9v9.4l-38.2,22.1V368l38.7,22.3v5
	c3.3,2.3,6.3,4.4,11.6,7.9v-13l38.7-22.3v-51.3l-38.2-22.1v-9.4l45.5-26.3l44.1,26.6v58.8L2233.7,378.1z M2191.2,286.6l42.4-24.5
	l42.4,24.5v48.9l-42.4,24.5l-42.4-24.5V286.6z M2158.7,141.5l28.9-16.7l28.9,16.7v33.3l-28.9,16.7l-28.9-16.7V141.5z M2108.7,326
	v33.3l-28.9,16.7l-28.9-16.7V326l28.9-16.7L2108.7,326z M2122.2,246.6l-42.4,24.5l-42.4-24.5v-48.9l42.4-24.5l42.4,24.5V246.6z"/>
<path class="st2" d="M2051.5,222.1c0,15.6,12.7,28.3,28.3,28.3s28.3-12.7,28.3-28.3s-12.7-28.3-28.3-28.3
	C2064.2,193.8,2051.5,206.5,2051.5,222.1z M2097.7,222.1c0,9.9-8,17.9-17.9,17.9s-17.9-8-17.9-17.9s8-17.9,17.9-17.9
	C2089.7,204.2,2097.7,212.3,2097.7,222.1z"/>
<path class="st2" d="M2260.3,58.5c-24.2-13.4-51.1-22.6-80.1-26.7c-43.2-6.1-85.3,0.1-122.8,16c-13.4,29.1-25.1,58.9-35.5,89.2
	C2096.7,100.6,2174.9,71.7,2260.3,58.5z"/>
<path class="st2" d="M2064.1,342.6c0,8.7,7,15.7,15.7,15.7s15.7-7,15.7-15.7s-7-15.7-15.7-15.7S2064.1,334,2064.1,342.6z
	 M2089.3,342.6c0,5.2-4.2,9.5-9.5,9.5s-9.5-4.2-9.5-9.5c0-5.2,4.2-9.5,9.5-9.5S2089.3,337.4,2089.3,342.6z"/>
<path class="st2" d="M2030.7,61.2c-59.3,34.6-102.8,95.1-113.1,168.3c-0.4,2.9-0.8,5.9-1.1,8.8c20.2,28.1,41.1,52.3,62.4,73.9
	C1981.6,231.9,1993.3,149.5,2030.7,61.2z"/>
<path class="st2" d="M1915.3,265.9c1.3,78.3,42.2,149.5,105.8,190.9c32.7-3,62.2-8.2,89.3-15.1
	C2024.6,388.5,1962.5,329.1,1915.3,265.9z"/>
<polygon class="st2" points="1796.9,234 1519.8,234 1519.8,29.4 1477.3,29.4 1477.3,499.5 1519.8,499.5 1519.8,276.5 1796.9,276.5 
	1796.9,499.5 1839.4,499.5 1839.4,29.4 1796.9,29.4 "/>
<polygon class="st2" points="1197.9,29.4 1033.5,29.4 1033.5,72 1197.9,72 1197.9,499.5 1240.4,499.5 1240.4,72 1404.7,72 
	1404.7,29.4 1240.4,29.4 "/>
<path class="st2" d="M2749.3,499.8h50l-118.6-184.7c61.1-17.3,105.9-73.5,105.9-140.1l0,0c0-80.4-65.2-145.6-145.6-145.6h-185.4l0,0
	v291.2v178.8h42.5V320.6h136.1L2749.3,499.8z M2499.5,73.4h141.4c56,0,101.6,45.6,101.6,101.6s-45.6,101.6-101.6,101.6h-141.4V73.4z
	"/>
<linearGradient id="SVGID_1_" gradientUnits="userSpaceOnUse" x1="16.7129" y1="-2023.0638" x2="233.0359" y2="-1415.3345" gradientTransform="matrix(1 0 0 -1 0 -1347.8898)">
	<stop  offset="0.177" style="stop-color:#49C7EF"/>
	<stop  offset="0.3061" style="stop-color:#18C0F1"/>
	<stop  offset="0.5718" style="stop-color:#2989CA"/>
	<stop  offset="0.9012" style="stop-color:#2851A3"/>
</linearGradient>
<path class="st3" d="M292.5,34.5h-88.3l-178,459.9h83.3c8.8,0,16.2-2.4,22.2-7.1c6-4.7,10.2-10,12.5-15.9l97.4-278.1
	c3.2-8,6.5-17.5,10.1-28.4C255.3,153.9,292.5,34.5,292.5,34.5z"/>
<path class="st4" d="M527.7,224.6v269.7H635V167.1c-20.1,1.3-39.9,3.3-57,5.2l-4.7,0.6c-12.6,1.6-24.2,7.8-32.6,17.3
	C532.3,199.6,527.7,211.9,527.7,224.6L527.7,224.6z"/>
<linearGradient id="SVGID_2_" gradientUnits="userSpaceOnUse" x1="380.9908" y1="-1592.9702" x2="-115.9671" y2="-1956.2422" gradientTransform="matrix(1 0 0 -1 0 -1347.8898)">
	<stop  offset="0.3803" style="stop-color:#49C7EF"/>
	<stop  offset="0.4684" style="stop-color:#39C6F3"/>
	<stop  offset="0.5906" style="stop-color:#30BBED"/>
	<stop  offset="0.7327" style="stop-color:#389BD6"/>
	<stop  offset="0.8885" style="stop-color:#3E74BA"/>
	<stop  offset="1" style="stop-color:#415CAA"/>
</linearGradient>
<path class="st5" d="M490.9,185.9c-6.5,0.3-12.2,0.7-24.4,3.5C283.5,231,112.2,351.9,26.2,494.3h91.9c10.4,0,21.2-3.7,27.1-12.2
	c111-159.1,259.4-246.6,325.5-281C489,191.5,490,187.7,490.9,185.9z"/>
<path class="st4" d="M297.2,34.5h-93c0,0,19.2,6,26.3,22.9l142.9,413.9c2.8,6.6,7.3,12.3,12.9,16.6c5.7,4.3,13.1,6.5,22.4,6.5h82.7
	L319.2,49.5c-1.7-4.4-4.7-8.3-8.7-10.9C306.6,35.9,302,34.5,297.2,34.5L297.2,34.5z"/>
<radialGradient id="SVGID_3_" cx="1940.6711" cy="-267.9038" r="1.5112" gradientTransform="matrix(78.3897 0 0 -78.3942 -151546.875 -20839.9277)" gradientUnits="userSpaceOnUse">
	<stop  offset="0" style="stop-color:#FFD215"/>
	<stop  offset="1" style="stop-color:#F99B1C"/>
</radialGradient>
<path class="st6" d="M635,167.1V34.5H527.7v132.1c0,1.5,0.3,3,1,4.4c0.6,1.4,1.6,2.6,2.7,3.6c1.2,1,2.5,1.7,4,2.2
	c1.5,0.4,3,0.5,4.5,0.3C571.5,172.5,608.7,169,635,167.1z"/>
<path class="st4" d="M822.5,416.4l-0.5-2.9l86.6-88.7c12.2-12.4,23.7-24.7,34.6-36.8c10.5-11.7,20.1-24.3,28.6-37.6
	c8.1-12.8,14.6-26.5,19.4-40.9c4.9-15.1,7.2-30.9,7.1-46.7c0-19.6-3.4-37.5-10.3-53.8c-6.6-16-16.7-30.4-29.5-42.1
	c-12.8-11.8-28.4-21-46.6-27.6c-18.2-6.6-38.7-9.9-61.4-9.9c-20-0.1-39.9,2.7-59,8.4c-17.9,5.2-34.5,13.9-49,25.6
	C728,75,715.9,89.4,707,105.8c-9.2,16.4-15.5,35.7-19,57.6c17.2-0.8,45.6-1.4,66.5-1.8c15.7-0.3,29.8-9.2,37.5-22.9
	c0,0,0-0.1,0.1-0.1c4.1-6.9,9.4-13,15.8-17.8c10-7.7,22.3-11.5,36.8-11.5c17.9,0,31.2,4.9,39.9,14.7c8.7,9.8,13.1,23.8,13.1,42.1
	c0.1,10.7-1.3,21.4-4.1,31.7c-2.9,10.4-7,20.5-12.3,30c-6,10.8-13,21-20.8,30.5c-9.3,11.3-19.2,22.2-29.7,32.5L698.4,424.2
	c-5.9,5.1-10.5,11.6-13.3,18.9c-2.4,6.3-3.7,12.9-3.8,19.6v31.6h88.4L822.5,416.4z"/>
<linearGradient id="SVGID_4_" gradientUnits="userSpaceOnUse" x1="915.6099" y1="-1798.1211" x2="770.5552" y2="-1797.8704" gradientTransform="matrix(1 0 0 -1 0 -1347.8898)">
	<stop  offset="0" style="stop-color:#415CAA"/>
	<stop  offset="1" style="stop-color:#2851A3"/>
</linearGradient>
<path class="st7" d="M995.3,414.6c-6.1-5.8-14.4-8.7-24.9-8.7h-18.5c-0.1,0-0.1,0-0.2,0l-67.1,0c-0.6,0-1.3,0.1-1.9,0.1
	c-2.8,0-5.7,0.2-8.6,0.4c-7.1,0.4-14.1,1.2-21,2.3c-0.9,0.2-2,0.3-3,0.5c-4.5,0.7-8.7,1.3-12.7,1.9c-8,1.1-14.9,2-14.9,2
	c-15.7,16.1-33.6,34.5-44.4,45.5c-6.2,6.3-9.7,14.8-9.6,23.7v12h236.1v-56.8C1004.5,428.1,1001.5,420.4,995.3,414.6L995.3,414.6z"/>
<g>
	<g>
		<path class="st8" d="M3104.5,188.4c35.3,47.7,50.9,67.1,58.6,77.5h0.5c8.8-11.4,27.5-35.3,60.2-77.5h10.4l-65.4,83l66.4,90h-10.4
			c-34.3-46.4-53.5-72.7-61.2-83h-0.5c-7.8,11.1-29.1,39.8-61.2,83h-10.4l66.4-88.9l-64.4-84.1H3104.5z"/>
	</g>
</g>
<g>
</g>
<g>
</g>
<g>
</g>
<g>
</g>
<g>
</g>
<g>
</g>
</svg>
