<?xml version="1.0" encoding="utf-8"?>
<!-- Generator: Adobe Illustrator 25.2.3, SVG Export Plug-In . SVG Version: 6.00 Build 0)  -->
<svg version="1.1" id="Layer_1" xmlns="http://www.w3.org/2000/svg" xmlns:xlink="http://www.w3.org/1999/xlink" x="0px" y="0px"
	 viewBox="0 0 1385.7 92.1" style="enable-background:new 0 0 1385.7 92.1;" xml:space="preserve">
<style type="text/css">
	.st0{fill:#2750A3;}
	.st1{fill:#223E7E;}
	.st2{fill:#FFFFFF;}
</style>
<g>
	<path class="st0" d="M9.8,90.6c-4.6,0-8.3-3.7-8.3-8.3V9.8c0-4.6,3.7-8.3,8.3-8.3h1366.1c4.6,0,8.3,3.7,8.3,8.3v72.4
		c0,4.6-3.7,8.3-8.3,8.3H9.8z"/>
	<path class="st1" d="M1375.9,3c3.8,0,6.8,3.1,6.8,6.8v72.4c0,3.8-3.1,6.8-6.8,6.8H9.8C6.1,89.1,3,86,3,82.2V9.8C3,6.1,6.1,3,9.8,3
		H1375.9 M1375.9,0H9.8C4.4,0,0,4.4,0,9.8v72.4c0,5.4,4.4,9.8,9.8,9.8h1366.1c5.4,0,9.8-4.4,9.8-9.8V9.8
		C1385.7,4.4,1381.3,0,1375.9,0L1375.9,0z"/>
</g>
<g>
	<g>
		<path class="st2" d="M459.6,62.5V29.8h22.1v3.9H464v10.1h15.3v3.9H464v14.9H459.6z"/>
		<path class="st2" d="M502.3,62.5v-3.5c-1.8,2.7-4.4,4-7.5,4c-1.4,0-2.7-0.3-3.9-0.8s-2.1-1.2-2.7-2c-0.6-0.8-1-1.8-1.2-3
			c-0.2-0.8-0.2-2-0.2-3.7V38.9h4V52c0,2.1,0.1,3.5,0.2,4.2c0.3,1.1,0.8,1.9,1.6,2.5c0.8,0.6,1.8,0.9,3,0.9c1.2,0,2.3-0.3,3.4-0.9
			s1.8-1.5,2.2-2.5c0.4-1.1,0.7-2.6,0.7-4.6V38.9h4v23.7H502.3z"/>
		<path class="st2" d="M512.1,62.5V29.8h4v32.7H512.1z"/>
		<path class="st2" d="M522.3,62.5V29.8h4v32.7H522.3z"/>
		<path class="st2" d="M544.2,52l4.1-0.4c0.2,1.6,0.6,3,1.3,4c0.7,1,1.8,1.9,3.3,2.5c1.5,0.6,3.2,1,5,1c1.7,0,3.1-0.2,4.4-0.7
			c1.3-0.5,2.2-1.2,2.8-2s0.9-1.8,0.9-2.8c0-1-0.3-1.9-0.9-2.7s-1.6-1.4-2.9-1.9c-0.9-0.3-2.8-0.9-5.8-1.6s-5.1-1.4-6.3-2
			c-1.6-0.8-2.7-1.8-3.5-3c-0.8-1.2-1.1-2.6-1.1-4.1c0-1.7,0.5-3.2,1.4-4.6c0.9-1.4,2.3-2.5,4.1-3.3c1.8-0.7,3.8-1.1,6-1.1
			c2.4,0,4.6,0.4,6.4,1.2c1.9,0.8,3.3,1.9,4.3,3.4c1,1.5,1.5,3.2,1.6,5.2l-4.1,0.3c-0.2-2.1-1-3.6-2.3-4.7c-1.3-1.1-3.2-1.6-5.7-1.6
			c-2.6,0-4.5,0.5-5.7,1.4c-1.2,1-1.8,2.1-1.8,3.5c0,1.2,0.4,2.1,1.3,2.9c0.8,0.8,3,1.5,6.5,2.3c3.5,0.8,5.9,1.5,7.2,2.1
			c1.9,0.9,3.3,2,4.2,3.3c0.9,1.3,1.4,2.9,1.4,4.7c0,1.7-0.5,3.4-1.5,4.9s-2.4,2.7-4.3,3.6c-1.9,0.9-4,1.3-6.3,1.3
			c-3,0-5.4-0.4-7.4-1.3s-3.6-2.2-4.7-3.9S544.3,54.2,544.2,52z"/>
		<path class="st2" d="M584.4,59l0.6,3.5c-1.1,0.2-2.1,0.4-3,0.4c-1.5,0-2.6-0.2-3.4-0.7s-1.4-1.1-1.7-1.8c-0.3-0.8-0.5-2.3-0.5-4.7
			V42h-2.9v-3.1h2.9V33l4-2.4v8.3h4V42h-4v13.9c0,1.1,0.1,1.9,0.2,2.2s0.4,0.6,0.7,0.8s0.8,0.3,1.4,0.3
			C583.1,59.1,583.7,59.1,584.4,59z"/>
		<path class="st2" d="M603.8,59.6c-1.5,1.3-2.9,2.2-4.3,2.7c-1.4,0.5-2.9,0.8-4.4,0.8c-2.6,0-4.6-0.6-6-1.9
			c-1.4-1.3-2.1-2.9-2.1-4.9c0-1.2,0.3-2.2,0.8-3.2c0.5-1,1.2-1.7,2.1-2.3c0.9-0.6,1.8-1,2.9-1.3c0.8-0.2,2-0.4,3.6-0.6
			c3.2-0.4,5.6-0.8,7.2-1.4c0-0.5,0-0.9,0-1c0-1.6-0.4-2.8-1.1-3.5c-1-0.9-2.6-1.4-4.6-1.4c-1.9,0-3.3,0.3-4.2,1
			c-0.9,0.7-1.6,1.8-2,3.5l-3.9-0.5c0.4-1.7,0.9-3,1.8-4.1c0.8-1,2-1.8,3.5-2.4c1.5-0.6,3.3-0.8,5.4-0.8c2,0,3.7,0.2,4.9,0.7
			c1.3,0.5,2.2,1.1,2.8,1.8s1,1.6,1.2,2.7c0.1,0.7,0.2,1.9,0.2,3.7v5.4c0,3.7,0.1,6.1,0.3,7.1s0.5,1.9,1,2.8h-4.2
			C604.2,61.7,603.9,60.7,603.8,59.6z M603.5,50.7c-1.5,0.6-3.6,1.1-6.6,1.5c-1.7,0.2-2.8,0.5-3.5,0.8c-0.7,0.3-1.2,0.7-1.6,1.3
			c-0.4,0.6-0.6,1.2-0.6,1.9c0,1.1,0.4,2,1.2,2.7s2,1.1,3.6,1.1c1.5,0,2.9-0.3,4.1-1c1.2-0.7,2.1-1.6,2.7-2.8c0.4-0.9,0.6-2.2,0.6-4
			V50.7z"/>
		<path class="st2" d="M613.7,62.5V38.9h3.6v3.6c0.9-1.7,1.8-2.8,2.6-3.3c0.8-0.5,1.6-0.8,2.6-0.8c1.4,0,2.7,0.4,4.1,1.3l-1.4,3.7
			c-1-0.6-2-0.9-2.9-0.9c-0.9,0-1.7,0.3-2.4,0.8c-0.7,0.5-1.2,1.3-1.5,2.2c-0.4,1.4-0.7,3-0.7,4.7v12.4H613.7z"/>
		<path class="st2" d="M637.7,59l0.6,3.5c-1.1,0.2-2.1,0.4-3,0.4c-1.5,0-2.6-0.2-3.4-0.7s-1.4-1.1-1.7-1.8c-0.3-0.8-0.5-2.3-0.5-4.7
			V42h-2.9v-3.1h2.9V33l4-2.4v8.3h4V42h-4v13.9c0,1.1,0.1,1.9,0.2,2.2s0.4,0.6,0.7,0.8s0.8,0.3,1.4,0.3
			C636.4,59.1,637,59.1,637.7,59z"/>
		<path class="st2" d="M657.9,54.9l4.1,0.5c-0.7,2.4-1.9,4.3-3.6,5.6c-1.8,1.3-4,2-6.8,2c-3.5,0-6.2-1.1-8.2-3.2s-3-5.1-3-9
			c0-4,1-7.1,3.1-9.3c2.1-2.2,4.7-3.3,8-3.3c3.2,0,5.8,1.1,7.8,3.2c2,2.2,3,5.2,3,9.1c0,0.2,0,0.6,0,1.1h-17.7
			c0.1,2.6,0.9,4.6,2.2,6c1.3,1.4,3,2.1,5,2.1c1.5,0,2.7-0.4,3.8-1.2S657.3,56.6,657.9,54.9z M644.7,48.4h13.2
			c-0.2-2-0.7-3.5-1.5-4.5c-1.3-1.5-2.9-2.3-5-2.3c-1.8,0-3.4,0.6-4.7,1.9C645.5,44.7,644.8,46.4,644.7,48.4z"/>
		<path class="st2" d="M667,62.5V38.9h3.6v3.6c0.9-1.7,1.8-2.8,2.6-3.3c0.8-0.5,1.6-0.8,2.6-0.8c1.4,0,2.7,0.4,4.1,1.3l-1.4,3.7
			c-1-0.6-2-0.9-2.9-0.9c-0.9,0-1.7,0.3-2.4,0.8c-0.7,0.5-1.2,1.3-1.5,2.2c-0.4,1.4-0.7,3-0.7,4.7v12.4H667z"/>
		<path class="st2" d="M703,62.5V33.7h-10.8v-3.9h25.9v3.9h-10.8v28.8H703z"/>
		<path class="st2" d="M733.2,54.9l4.1,0.5c-0.7,2.4-1.9,4.3-3.6,5.6c-1.8,1.3-4,2-6.8,2c-3.5,0-6.2-1.1-8.2-3.2s-3-5.1-3-9
			c0-4,1-7.1,3.1-9.3c2.1-2.2,4.7-3.3,8-3.3c3.2,0,5.8,1.1,7.8,3.2c2,2.2,3,5.2,3,9.1c0,0.2,0,0.6,0,1.1h-17.7
			c0.1,2.6,0.9,4.6,2.2,6c1.3,1.4,3,2.1,5,2.1c1.5,0,2.7-0.4,3.8-1.2S732.6,56.6,733.2,54.9z M720,48.4h13.2c-0.2-2-0.7-3.5-1.5-4.5
			c-1.3-1.5-2.9-2.3-5-2.3c-1.8,0-3.4,0.6-4.7,1.9C720.9,44.7,720.2,46.4,720,48.4z"/>
		<path class="st2" d="M742.4,62.5V38.9h3.6v3.3c0.7-1.2,1.7-2.1,3-2.8s2.6-1.1,4.2-1.1c1.8,0,3.2,0.4,4.3,1.1
			c1.1,0.7,1.9,1.7,2.4,3.1c1.9-2.8,4.3-4.1,7.3-4.1c2.3,0,4.2,0.7,5.4,2c1.3,1.3,1.9,3.3,1.9,6v16.3h-4V47.6c0-1.6-0.1-2.8-0.4-3.5
			c-0.3-0.7-0.7-1.3-1.4-1.7s-1.5-0.6-2.4-0.6c-1.7,0-3,0.6-4.1,1.7c-1.1,1.1-1.7,2.9-1.7,5.3v13.8h-4V47.2c0-1.8-0.3-3.1-1-4
			s-1.7-1.3-3.2-1.3c-1.1,0-2.2,0.3-3.1,0.9s-1.7,1.5-2.1,2.6c-0.4,1.1-0.6,2.8-0.6,5v12.3H742.4z"/>
		<path class="st2" d="M780.5,71.6V38.9h3.7v3.1c0.9-1.2,1.8-2.1,2.9-2.7c1.1-0.6,2.4-0.9,3.9-0.9c2,0,3.8,0.5,5.4,1.6
			s2.7,2.5,3.5,4.4c0.8,1.9,1.2,4,1.2,6.2c0,2.4-0.4,4.6-1.3,6.5c-0.9,1.9-2.1,3.4-3.8,4.5s-3.4,1.5-5.2,1.5c-1.3,0-2.5-0.3-3.6-0.8
			c-1.1-0.6-1.9-1.3-2.6-2.1v11.5H780.5z M784.1,50.8c0,3,0.6,5.3,1.9,6.8c1.2,1.5,2.7,2.2,4.5,2.2c1.8,0,3.3-0.8,4.6-2.3
			c1.3-1.5,1.9-3.8,1.9-7c0-3-0.6-5.3-1.9-6.8c-1.2-1.5-2.7-2.3-4.5-2.3c-1.7,0-3.2,0.8-4.5,2.4C784.8,45.5,784.1,47.8,784.1,50.8z"
			/>
		<path class="st2" d="M805.8,62.5V29.8h4v32.7H805.8z"/>
		<path class="st2" d="M831.5,59.6c-1.5,1.3-2.9,2.2-4.3,2.7c-1.4,0.5-2.9,0.8-4.4,0.8c-2.6,0-4.6-0.6-6-1.9
			c-1.4-1.3-2.1-2.9-2.1-4.9c0-1.2,0.3-2.2,0.8-3.2c0.5-1,1.2-1.7,2.1-2.3c0.9-0.6,1.8-1,2.9-1.3c0.8-0.2,2-0.4,3.6-0.6
			c3.2-0.4,5.6-0.8,7.2-1.4c0-0.5,0-0.9,0-1c0-1.6-0.4-2.8-1.1-3.5c-1-0.9-2.6-1.4-4.6-1.4c-1.9,0-3.3,0.3-4.2,1
			c-0.9,0.7-1.6,1.8-2,3.5l-3.9-0.5c0.4-1.7,0.9-3,1.8-4.1c0.8-1,2-1.8,3.5-2.4c1.5-0.6,3.3-0.8,5.4-0.8c2,0,3.7,0.2,4.9,0.7
			c1.3,0.5,2.2,1.1,2.8,1.8s1,1.6,1.2,2.7c0.1,0.7,0.2,1.9,0.2,3.7v5.4c0,3.7,0.1,6.1,0.3,7.1s0.5,1.9,1,2.8h-4.2
			C831.9,61.7,831.6,60.7,831.5,59.6z M831.1,50.7c-1.5,0.6-3.6,1.1-6.6,1.5c-1.7,0.2-2.8,0.5-3.5,0.8c-0.7,0.3-1.2,0.7-1.6,1.3
			c-0.4,0.6-0.6,1.2-0.6,1.9c0,1.1,0.4,2,1.2,2.7s2,1.1,3.6,1.1c1.5,0,2.9-0.3,4.1-1c1.2-0.7,2.1-1.6,2.7-2.8c0.4-0.9,0.6-2.2,0.6-4
			V50.7z"/>
		<path class="st2" d="M850.2,59l0.6,3.5c-1.1,0.2-2.1,0.4-3,0.4c-1.5,0-2.6-0.2-3.4-0.7s-1.4-1.1-1.7-1.8c-0.3-0.8-0.5-2.3-0.5-4.7
			V42h-2.9v-3.1h2.9V33l4-2.4v8.3h4V42h-4v13.9c0,1.1,0.1,1.9,0.2,2.2s0.4,0.6,0.7,0.8s0.8,0.3,1.4,0.3
			C848.9,59.1,849.5,59.1,850.2,59z"/>
		<path class="st2" d="M870.3,54.9l4.1,0.5c-0.7,2.4-1.9,4.3-3.6,5.6c-1.8,1.3-4,2-6.8,2c-3.5,0-6.2-1.1-8.2-3.2s-3-5.1-3-9
			c0-4,1-7.1,3.1-9.3c2.1-2.2,4.7-3.3,8-3.3c3.2,0,5.8,1.1,7.8,3.2c2,2.2,3,5.2,3,9.1c0,0.2,0,0.6,0,1.1h-17.7
			c0.1,2.6,0.9,4.6,2.2,6c1.3,1.4,3,2.1,5,2.1c1.5,0,2.7-0.4,3.8-1.2S869.7,56.6,870.3,54.9z M857.1,48.4h13.2
			c-0.2-2-0.7-3.5-1.5-4.5c-1.3-1.5-2.9-2.3-5-2.3c-1.8,0-3.4,0.6-4.7,1.9C858,44.7,857.3,46.4,857.1,48.4z"/>
	</g>
	<g>
		<g>
			<rect x="891.8" y="45.2" class="st2" width="33.9" height="3"/>
		</g>
		<g>
			<g>
				<polygon class="st2" points="912.8,62.6 910.2,59.7 924.2,46.7 910.2,33.7 912.8,30.8 929.9,46.7 				"/>
			</g>
		</g>
	</g>
</g>
<g>
</g>
<g>
</g>
<g>
</g>
<g>
</g>
<g>
</g>
<g>
</g>
</svg>
