<?xml version="1.0" encoding="utf-8"?>
<!-- Generator: Adobe Illustrator 25.2.3, SVG Export Plug-In . SVG Version: 6.00 Build 0)  -->
<svg version="1.1" id="Layer_1" xmlns="http://www.w3.org/2000/svg" xmlns:xlink="http://www.w3.org/1999/xlink" x="0px" y="0px"
	 viewBox="0 0 1385.7 92.1" style="enable-background:new 0 0 1385.7 92.1;" xml:space="preserve">
<style type="text/css">
	.st0{fill:#2750A3;}
	.st1{fill:#223E7E;}
	.st2{fill:#FFFFFF;}
</style>
<g>
	<path class="st0" d="M9.8,90.6c-4.6,0-8.3-3.7-8.3-8.3V9.8c0-4.6,3.7-8.3,8.3-8.3h1366.1c4.6,0,8.3,3.7,8.3,8.3v72.4
		c0,4.6-3.7,8.3-8.3,8.3H9.8z"/>
	<path class="st1" d="M1375.9,3c3.8,0,6.8,3.1,6.8,6.8v72.4c0,3.8-3.1,6.8-6.8,6.8H9.8C6.1,89.1,3,86,3,82.2V9.8C3,6.1,6.1,3,9.8,3
		H1375.9 M1375.9,0H9.8C4.4,0,0,4.4,0,9.8v72.4c0,5.4,4.4,9.8,9.8,9.8h1366.1c5.4,0,9.8-4.4,9.8-9.8V9.8
		C1385.7,4.4,1381.3,0,1375.9,0L1375.9,0z"/>
</g>
<g>
	<g>
		<path class="st2" d="M417.7,62.5V29.8h6.5L432,53c0.7,2.2,1.2,3.8,1.6,4.8c0.4-1.2,1-2.9,1.7-5.2l7.8-22.8h5.8v32.7h-4.2V35.2
			l-9.5,27.4h-3.9l-9.5-27.8v27.8H417.7z"/>
		<path class="st2" d="M455.4,34.5v-4.6h4v4.6H455.4z M455.4,62.5V38.9h4v23.7H455.4z"/>
		<path class="st2" d="M465.6,62.5V38.9h3.6v3.4c1.7-2.6,4.3-3.9,7.5-3.9c1.4,0,2.7,0.3,3.9,0.8s2.1,1.2,2.7,2c0.6,0.8,1,1.8,1.2,3
			c0.1,0.7,0.2,2,0.2,3.9v14.6h-4V48.1c0-1.6-0.2-2.9-0.5-3.7s-0.9-1.5-1.7-1.9s-1.7-0.7-2.8-0.7c-1.7,0-3.2,0.5-4.4,1.6
			c-1.2,1.1-1.9,3.1-1.9,6.2v12.9H465.6z"/>
		<path class="st2" d="M491,34.5v-4.6h4v4.6H491z M491,62.5V38.9h4v23.7H491z"/>
		<path class="st2" d="M501.1,62.5V38.9h3.6v3.3c0.7-1.2,1.7-2.1,3-2.8s2.6-1.1,4.2-1.1c1.8,0,3.2,0.4,4.3,1.1
			c1.1,0.7,1.9,1.7,2.4,3.1c1.9-2.8,4.3-4.1,7.3-4.1c2.3,0,4.2,0.7,5.4,2c1.3,1.3,1.9,3.3,1.9,6v16.3h-4V47.6c0-1.6-0.1-2.8-0.4-3.5
			c-0.3-0.7-0.7-1.3-1.4-1.7s-1.5-0.6-2.4-0.6c-1.7,0-3,0.6-4.1,1.7c-1.1,1.1-1.7,2.9-1.7,5.3v13.8h-4V47.2c0-1.8-0.3-3.1-1-4
			s-1.7-1.3-3.2-1.3c-1.1,0-2.2,0.3-3.1,0.9s-1.7,1.5-2.1,2.6c-0.4,1.1-0.6,2.8-0.6,5v12.3H501.1z"/>
		<path class="st2" d="M554.6,59.6c-1.5,1.3-2.9,2.2-4.3,2.7c-1.4,0.5-2.9,0.8-4.4,0.8c-2.6,0-4.6-0.6-6-1.9
			c-1.4-1.3-2.1-2.9-2.1-4.9c0-1.2,0.3-2.2,0.8-3.2c0.5-1,1.2-1.7,2.1-2.3c0.9-0.6,1.8-1,2.9-1.3c0.8-0.2,2-0.4,3.6-0.6
			c3.2-0.4,5.6-0.8,7.2-1.4c0-0.5,0-0.9,0-1c0-1.6-0.4-2.8-1.1-3.5c-1-0.9-2.6-1.4-4.6-1.4c-1.9,0-3.3,0.3-4.2,1
			c-0.9,0.7-1.6,1.8-2,3.5l-3.9-0.5c0.4-1.7,0.9-3,1.8-4.1c0.8-1,2-1.8,3.5-2.4c1.5-0.6,3.3-0.8,5.4-0.8c2,0,3.7,0.2,4.9,0.7
			c1.3,0.5,2.2,1.1,2.8,1.8s1,1.6,1.2,2.7c0.1,0.7,0.2,1.9,0.2,3.7v5.4c0,3.7,0.1,6.1,0.3,7.1s0.5,1.9,1,2.8h-4.2
			C555,61.7,554.8,60.7,554.6,59.6z M554.3,50.7c-1.5,0.6-3.6,1.1-6.6,1.5c-1.7,0.2-2.8,0.5-3.5,0.8c-0.7,0.3-1.2,0.7-1.6,1.3
			c-0.4,0.6-0.6,1.2-0.6,1.9c0,1.1,0.4,2,1.2,2.7s2,1.1,3.6,1.1c1.5,0,2.9-0.3,4.1-1c1.2-0.7,2.1-1.6,2.7-2.8c0.4-0.9,0.6-2.2,0.6-4
			V50.7z"/>
		<path class="st2" d="M564.5,62.5V29.8h4v32.7H564.5z"/>
		<path class="st2" d="M586.5,52l4.1-0.4c0.2,1.6,0.6,3,1.3,4c0.7,1,1.8,1.9,3.3,2.5c1.5,0.6,3.2,1,5,1c1.7,0,3.1-0.2,4.4-0.7
			c1.3-0.5,2.2-1.2,2.8-2s0.9-1.8,0.9-2.8c0-1-0.3-1.9-0.9-2.7s-1.6-1.4-2.9-1.9c-0.9-0.3-2.8-0.9-5.8-1.6s-5.1-1.4-6.3-2
			c-1.6-0.8-2.7-1.8-3.5-3c-0.8-1.2-1.1-2.6-1.1-4.1c0-1.7,0.5-3.2,1.4-4.6c0.9-1.4,2.3-2.5,4.1-3.3c1.8-0.7,3.8-1.1,6-1.1
			c2.4,0,4.6,0.4,6.4,1.2c1.9,0.8,3.3,1.9,4.3,3.4c1,1.5,1.5,3.2,1.6,5.2l-4.1,0.3c-0.2-2.1-1-3.6-2.3-4.7c-1.3-1.1-3.2-1.6-5.7-1.6
			c-2.6,0-4.5,0.5-5.7,1.4c-1.2,1-1.8,2.1-1.8,3.5c0,1.2,0.4,2.1,1.3,2.9c0.8,0.8,3,1.5,6.5,2.3c3.5,0.8,5.9,1.5,7.2,2.1
			c1.9,0.9,3.3,2,4.2,3.3c0.9,1.3,1.4,2.9,1.4,4.7c0,1.7-0.5,3.4-1.5,4.9s-2.4,2.7-4.3,3.6c-1.9,0.9-4,1.3-6.3,1.3
			c-3,0-5.4-0.4-7.4-1.3s-3.6-2.2-4.7-3.9S586.5,54.2,586.5,52z"/>
		<path class="st2" d="M626.7,59l0.6,3.5c-1.1,0.2-2.1,0.4-3,0.4c-1.5,0-2.6-0.2-3.4-0.7s-1.4-1.1-1.7-1.8c-0.3-0.8-0.5-2.3-0.5-4.7
			V42h-2.9v-3.1h2.9V33l4-2.4v8.3h4V42h-4v13.9c0,1.1,0.1,1.9,0.2,2.2s0.4,0.6,0.7,0.8s0.8,0.3,1.4,0.3
			C625.4,59.1,625.9,59.1,626.7,59z"/>
		<path class="st2" d="M646.1,59.6c-1.5,1.3-2.9,2.2-4.3,2.7c-1.4,0.5-2.9,0.8-4.4,0.8c-2.6,0-4.6-0.6-6-1.9
			c-1.4-1.3-2.1-2.9-2.1-4.9c0-1.2,0.3-2.2,0.8-3.2c0.5-1,1.2-1.7,2.1-2.3c0.9-0.6,1.8-1,2.9-1.3c0.8-0.2,2-0.4,3.6-0.6
			c3.2-0.4,5.6-0.8,7.2-1.4c0-0.5,0-0.9,0-1c0-1.6-0.4-2.8-1.1-3.5c-1-0.9-2.6-1.4-4.6-1.4c-1.9,0-3.3,0.3-4.2,1
			c-0.9,0.7-1.6,1.8-2,3.5l-3.9-0.5c0.4-1.7,0.9-3,1.8-4.1c0.8-1,2-1.8,3.5-2.4c1.5-0.6,3.3-0.8,5.4-0.8c2,0,3.7,0.2,4.9,0.7
			c1.3,0.5,2.2,1.1,2.8,1.8s1,1.6,1.2,2.7c0.1,0.7,0.2,1.9,0.2,3.7v5.4c0,3.7,0.1,6.1,0.3,7.1s0.5,1.9,1,2.8h-4.2
			C646.4,61.7,646.2,60.7,646.1,59.6z M645.7,50.7c-1.5,0.6-3.6,1.1-6.6,1.5c-1.7,0.2-2.8,0.5-3.5,0.8c-0.7,0.3-1.2,0.7-1.6,1.3
			c-0.4,0.6-0.6,1.2-0.6,1.9c0,1.1,0.4,2,1.2,2.7s2,1.1,3.6,1.1c1.5,0,2.9-0.3,4.1-1c1.2-0.7,2.1-1.6,2.7-2.8c0.4-0.9,0.6-2.2,0.6-4
			V50.7z"/>
		<path class="st2" d="M656,62.5V38.9h3.6v3.6c0.9-1.7,1.8-2.8,2.6-3.3c0.8-0.5,1.6-0.8,2.6-0.8c1.4,0,2.7,0.4,4.1,1.3l-1.4,3.7
			c-1-0.6-2-0.9-2.9-0.9c-0.9,0-1.7,0.3-2.4,0.8c-0.7,0.5-1.2,1.3-1.5,2.2c-0.4,1.4-0.7,3-0.7,4.7v12.4H656z"/>
		<path class="st2" d="M680,59l0.6,3.5c-1.1,0.2-2.1,0.4-3,0.4c-1.5,0-2.6-0.2-3.4-0.7s-1.4-1.1-1.7-1.8c-0.3-0.8-0.5-2.3-0.5-4.7
			V42H669v-3.1h2.9V33l4-2.4v8.3h4V42h-4v13.9c0,1.1,0.1,1.9,0.2,2.2s0.4,0.6,0.7,0.8s0.8,0.3,1.4,0.3C678.7,59.1,679.3,59.1,680,59
			z"/>
		<path class="st2" d="M700.1,54.9l4.1,0.5c-0.7,2.4-1.9,4.3-3.6,5.6c-1.8,1.3-4,2-6.8,2c-3.5,0-6.2-1.1-8.2-3.2s-3-5.1-3-9
			c0-4,1-7.1,3.1-9.3c2.1-2.2,4.7-3.3,8-3.3c3.2,0,5.8,1.1,7.8,3.2c2,2.2,3,5.2,3,9.1c0,0.2,0,0.6,0,1.1h-17.7
			c0.1,2.6,0.9,4.6,2.2,6c1.3,1.4,3,2.1,5,2.1c1.5,0,2.7-0.4,3.8-1.2S699.5,56.6,700.1,54.9z M686.9,48.4h13.2
			c-0.2-2-0.7-3.5-1.5-4.5c-1.3-1.5-2.9-2.3-5-2.3c-1.8,0-3.4,0.6-4.7,1.9C687.8,44.7,687.1,46.4,686.9,48.4z"/>
		<path class="st2" d="M709.3,62.5V38.9h3.6v3.6c0.9-1.7,1.8-2.8,2.6-3.3c0.8-0.5,1.6-0.8,2.6-0.8c1.4,0,2.7,0.4,4.1,1.3l-1.4,3.7
			c-1-0.6-2-0.9-2.9-0.9c-0.9,0-1.7,0.3-2.4,0.8c-0.7,0.5-1.2,1.3-1.5,2.2c-0.4,1.4-0.7,3-0.7,4.7v12.4H709.3z"/>
		<path class="st2" d="M745.2,62.5V33.7h-10.8v-3.9h25.9v3.9h-10.8v28.8H745.2z"/>
		<path class="st2" d="M775.5,54.9l4.1,0.5c-0.7,2.4-1.9,4.3-3.6,5.6c-1.8,1.3-4,2-6.8,2c-3.5,0-6.2-1.1-8.2-3.2s-3-5.1-3-9
			c0-4,1-7.1,3.1-9.3c2.1-2.2,4.7-3.3,8-3.3c3.2,0,5.8,1.1,7.8,3.2c2,2.2,3,5.2,3,9.1c0,0.2,0,0.6,0,1.1H762c0.1,2.6,0.9,4.6,2.2,6
			c1.3,1.4,3,2.1,5,2.1c1.5,0,2.7-0.4,3.8-1.2S774.8,56.6,775.5,54.9z M762.3,48.4h13.2c-0.2-2-0.7-3.5-1.5-4.5
			c-1.3-1.5-2.9-2.3-5-2.3c-1.8,0-3.4,0.6-4.7,1.9C763.1,44.7,762.4,46.4,762.3,48.4z"/>
		<path class="st2" d="M784.6,62.5V38.9h3.6v3.3c0.7-1.2,1.7-2.1,3-2.8s2.6-1.1,4.2-1.1c1.8,0,3.2,0.4,4.3,1.1
			c1.1,0.7,1.9,1.7,2.4,3.1c1.9-2.8,4.3-4.1,7.3-4.1c2.3,0,4.2,0.7,5.4,2c1.3,1.3,1.9,3.3,1.9,6v16.3h-4V47.6c0-1.6-0.1-2.8-0.4-3.5
			c-0.3-0.7-0.7-1.3-1.4-1.7s-1.5-0.6-2.4-0.6c-1.7,0-3,0.6-4.1,1.7c-1.1,1.1-1.7,2.9-1.7,5.3v13.8h-4V47.2c0-1.8-0.3-3.1-1-4
			s-1.7-1.3-3.2-1.3c-1.1,0-2.2,0.3-3.1,0.9s-1.7,1.5-2.1,2.6c-0.4,1.1-0.6,2.8-0.6,5v12.3H784.6z"/>
		<path class="st2" d="M822.7,71.6V38.9h3.7v3.1c0.9-1.2,1.8-2.1,2.9-2.7c1.1-0.6,2.4-0.9,3.9-0.9c2,0,3.8,0.5,5.4,1.6
			s2.7,2.5,3.5,4.4c0.8,1.9,1.2,4,1.2,6.2c0,2.4-0.4,4.6-1.3,6.5c-0.9,1.9-2.1,3.4-3.8,4.5s-3.4,1.5-5.2,1.5c-1.3,0-2.5-0.3-3.6-0.8
			c-1.1-0.6-1.9-1.3-2.6-2.1v11.5H822.7z M826.3,50.8c0,3,0.6,5.3,1.9,6.8c1.2,1.5,2.7,2.2,4.5,2.2c1.8,0,3.3-0.8,4.6-2.3
			c1.3-1.5,1.9-3.8,1.9-7c0-3-0.6-5.3-1.9-6.8c-1.2-1.5-2.7-2.3-4.5-2.3c-1.7,0-3.2,0.8-4.5,2.4C827,45.5,826.3,47.8,826.3,50.8z"/>
		<path class="st2" d="M848,62.5V29.8h4v32.7H848z"/>
		<path class="st2" d="M873.7,59.6c-1.5,1.3-2.9,2.2-4.3,2.7c-1.4,0.5-2.9,0.8-4.4,0.8c-2.6,0-4.6-0.6-6-1.9
			c-1.4-1.3-2.1-2.9-2.1-4.9c0-1.2,0.3-2.2,0.8-3.2c0.5-1,1.2-1.7,2.1-2.3c0.9-0.6,1.8-1,2.9-1.3c0.8-0.2,2-0.4,3.6-0.6
			c3.2-0.4,5.6-0.8,7.2-1.4c0-0.5,0-0.9,0-1c0-1.6-0.4-2.8-1.1-3.5c-1-0.9-2.6-1.4-4.6-1.4c-1.9,0-3.3,0.3-4.2,1
			c-0.9,0.7-1.6,1.8-2,3.5l-3.9-0.5c0.4-1.7,0.9-3,1.8-4.1c0.8-1,2-1.8,3.5-2.4c1.5-0.6,3.3-0.8,5.4-0.8c2,0,3.7,0.2,4.9,0.7
			c1.3,0.5,2.2,1.1,2.8,1.8s1,1.6,1.2,2.7c0.1,0.7,0.2,1.9,0.2,3.7v5.4c0,3.7,0.1,6.1,0.3,7.1s0.5,1.9,1,2.8h-4.2
			C874.1,61.7,873.8,60.7,873.7,59.6z M873.4,50.7c-1.5,0.6-3.6,1.1-6.6,1.5c-1.7,0.2-2.8,0.5-3.5,0.8c-0.7,0.3-1.2,0.7-1.6,1.3
			c-0.4,0.6-0.6,1.2-0.6,1.9c0,1.1,0.4,2,1.2,2.7s2,1.1,3.6,1.1c1.5,0,2.9-0.3,4.1-1c1.2-0.7,2.1-1.6,2.7-2.8c0.4-0.9,0.6-2.2,0.6-4
			V50.7z"/>
		<path class="st2" d="M892.4,59l0.6,3.5c-1.1,0.2-2.1,0.4-3,0.4c-1.5,0-2.6-0.2-3.4-0.7s-1.4-1.1-1.7-1.8c-0.3-0.8-0.5-2.3-0.5-4.7
			V42h-2.9v-3.1h2.9V33l4-2.4v8.3h4V42h-4v13.9c0,1.1,0.1,1.9,0.2,2.2s0.4,0.6,0.7,0.8s0.8,0.3,1.4,0.3
			C891.1,59.1,891.7,59.1,892.4,59z"/>
		<path class="st2" d="M912.6,54.9l4.1,0.5c-0.7,2.4-1.9,4.3-3.6,5.6c-1.8,1.3-4,2-6.8,2c-3.5,0-6.2-1.1-8.2-3.2s-3-5.1-3-9
			c0-4,1-7.1,3.1-9.3c2.1-2.2,4.7-3.3,8-3.3c3.2,0,5.8,1.1,7.8,3.2c2,2.2,3,5.2,3,9.1c0,0.2,0,0.6,0,1.1h-17.7
			c0.1,2.6,0.9,4.6,2.2,6c1.3,1.4,3,2.1,5,2.1c1.5,0,2.7-0.4,3.8-1.2S912,56.6,912.6,54.9z M899.4,48.4h13.2c-0.2-2-0.7-3.5-1.5-4.5
			c-1.3-1.5-2.9-2.3-5-2.3c-1.8,0-3.4,0.6-4.7,1.9C900.2,44.7,899.5,46.4,899.4,48.4z"/>
	</g>
	<g>
		<g>
			<rect x="933.3" y="45.2" class="st2" width="33.9" height="3"/>
		</g>
		<g>
			<g>
				<polygon class="st2" points="954.3,62.6 951.7,59.7 965.7,46.7 951.7,33.7 954.3,30.8 971.4,46.7 				"/>
			</g>
		</g>
	</g>
</g>
<g>
</g>
<g>
</g>
<g>
</g>
<g>
</g>
<g>
</g>
<g>
</g>
</svg>
